<?xml version="1.0" standalone="no"?>
<!DOCTYPE svg PUBLIC "-//W3C//DTD SVG 20010904//EN"
 "http://www.w3.org/TR/2001/REC-SVG-20010904/DTD/svg10.dtd">
<svg version="1.0" xmlns="http://www.w3.org/2000/svg"
 width="238.000000pt" height="250.000000pt" viewBox="0 0 238.000000 250.000000"
 preserveAspectRatio="xMidYMid meet">

<g transform="translate(0.000000,250.000000) scale(0.100000,-0.100000)"
fill="#000000" stroke="none">
<path d="M850 1930 l0 -70 -70 0 -70 0 0 -65 0 -65 -65 0 -65 0 0 -70 0 -70
-70 0 -70 0 0 -335 0 -335 70 0 70 0 0 -70 0 -70 65 0 65 0 0 -65 0 -65 70 0
70 0 0 -70 0 -70 335 0 335 0 0 70 0 70 70 0 70 0 0 65 0 65 65 0 65 0 0 70 0
70 70 0 70 0 0 335 0 335 -70 0 -70 0 0 70 0 70 -65 0 -65 0 0 65 0 65 -70 0
-70 0 0 70 0 70 -335 0 -335 0 0 -70z m670 -135 l0 -65 70 0 70 0 0 -70 0 -70
65 0 65 0 0 -335 0 -335 -65 0 -64 0 -3 -67 -3 -68 -67 -3 -68 -3 0 -64 0 -65
-335 0 -335 0 0 65 0 65 -70 0 -70 0 0 70 0 70 -65 0 -65 0 0 335 0 335 65 0
65 0 0 70 0 70 70 0 70 0 0 65 0 65 335 0 335 0 0 -65z"/>
<path d="M1120 1660 l0 -70 -70 0 -70 0 0 -135 0 -135 70 0 70 0 0 -65 0 -65
65 0 65 0 0 -70 0 -70 -135 0 -135 0 0 -65 0 -65 70 0 70 0 0 -70 0 -70 65 0
65 0 0 70 0 70 70 0 70 0 0 135 0 135 -70 0 -70 0 0 65 0 65 -65 0 -65 0 0 70
0 70 135 0 135 0 0 65 0 65 -70 0 -70 0 0 70 0 70 -65 0 -65 0 0 -70z"/>
</g>
</svg>
